<?xml version="1.0" encoding="utf-8"?>
<!-- Generator: Adobe Illustrator 19.0.0, SVG Export Plug-In . SVG Version: 6.00 Build 0)  -->
<svg version="1.1" id="Capa_1" xmlns="http://www.w3.org/2000/svg" xmlns:xlink="http://www.w3.org/1999/xlink" x="0px" y="0px"
	 viewBox="-343 7936 512 512" style="enable-background:new -343 7936 512 512;" xml:space="preserve">
<style type="text/css">
	.st0{fill:#FFFFFF;}
</style>
<g>
	<path class="st0" d="M129,8388c0,11-9,20-20,20H89v20c0,11-9,20-20,20s-20-9-20-20v-20H29c-11,0-20-9-20-20s9-20,20-20h20v-20
		c0-11,9-20,20-20s20,9,20,20v20h20C120,8368,129,8377,129,8388z M129,8076v192c0,11-9,20-20,20s-20-9-20-20v-172H49v60
		c0,11-9,20-20,20s-20-9-20-20v-60h-192v60c0,11-9,20-20,20s-20-9-20-20v-60h-40v312h212c11,0,20,9,20,20s-9,20-20,20h-232
		c-11,0-20-9-20-20v-352c0-11,9-20,20-20h60.9c7.9-67.5,65.5-120,135.1-120s127.1,52.5,135.1,120H109C120,8056,129,8065,129,8076z
		 M7.7,8056c-7.6-45.3-47.2-80-94.7-80s-87,34.7-94.7,80H7.7z"/>
</g>
</svg>
